<!DOCTYPE svg PUBLIC "-//W3C//DTD SVG 1.1//EN" "http://www.w3.org/Graphics/SVG/1.1/DTD/svg11.dtd">
<svg version="1.1" id="Layer_1" xmlns="http://www.w3.org/2000/svg" xmlns:xlink="http://www.w3.org/1999/xlink" x="0px" y="0px"
	 width="107px" height="52px" viewBox="-0.331 -0.526 107 52" enable-background="new -0.331 -0.526 107 52" xml:space="preserve">
<polygon fill="#4C2896" points="24.829,26.601 24.829,0.361 30.789,0.361 30.789,17.818 42.17,0.361 48.118,0.361 48.118,26.601 
	42.17,26.601 42.17,9.143 30.789,26.601 "/>
<polygon fill="#4C2896" points="69.556,15.732 58.879,15.732 58.879,26.601 52.947,26.601 52.947,0.361 58.879,0.361 58.879,10.274 
	69.556,10.274 69.556,0.361 75.517,0.361 75.517,26.601 69.556,26.601 "/>
<g>
	<path fill="#4C2896" d="M92.489,0.08c-7.555,0-13.68,6.124-13.68,13.68c0,7.556,6.125,13.68,13.68,13.68s13.68-6.124,13.68-13.68
		C106.169,6.204,100.044,0.08,92.489,0.08 M92.489,21.359c-4.197,0-7.6-3.401-7.6-7.599c0-4.197,3.401-7.6,7.6-7.6
		c4.197,0,7.601,3.403,7.601,7.6C100.09,17.958,96.687,21.359,92.489,21.359"/>
	<polygon fill="#4C2896" points="11.908,13.017 23.201,26.596 15.228,26.596 6.125,15.521 6.125,26.596 0.169,26.596 0.169,20.532 
		0.169,11.118 0.169,2.813 0.169,0.361 6.125,0.361 6.125,8.187 6.125,11.235 14.967,0.416 22.179,0.416 	"/>
	<path fill="#4C2896" d="M4.957,40.304c-1.322,0-2.433-0.425-3.333-1.271c-0.901-0.849-1.352-1.94-1.352-3.279
		c0-1.355,0.448-2.451,1.345-3.291c0.896-0.84,2.009-1.26,3.339-1.26c0.657,0,1.284,0.107,1.879,0.322
		c0.596,0.217,1.093,0.505,1.491,0.87l-1.776,2.14c-0.316-0.429-0.791-0.644-1.422-0.644c-0.495,0-0.909,0.17-1.241,0.51
		c-0.333,0.341-0.499,0.792-0.499,1.351c0,0.543,0.168,0.986,0.505,1.328c0.336,0.34,0.748,0.51,1.235,0.51
		c0.624,0,1.099-0.231,1.422-0.693l1.777,2.128C7.475,39.877,6.352,40.304,4.957,40.304"/>
	<polygon fill="#4C2896" points="9.86,40.06 9.86,31.447 12.609,31.447 12.609,36.057 12.658,36.057 15.188,31.447 18.194,31.447 
		18.194,40.06 15.444,40.06 15.444,35.706 15.396,35.706 12.938,40.06 	"/>
	<polygon fill="#4C2896" points="20.529,40.06 20.529,31.447 23.425,31.447 23.425,34.366 25.785,34.366 25.785,31.447 
		28.681,31.447 28.681,40.06 25.785,40.06 25.785,36.788 23.425,36.788 23.425,40.06 	"/>
	<polygon fill="#4C2896" points="31.017,40.06 31.017,31.447 36.941,31.447 36.941,33.855 33.741,33.855 33.741,34.598 
		36.747,34.598 36.747,36.848 33.741,36.848 33.741,37.651 37.148,37.651 37.148,40.06 	"/>
	<polygon fill="#4C2896" points="39.082,40.06 39.082,31.447 42.866,31.447 44.423,36.083 44.484,36.083 45.835,31.447 
		49.739,31.447 49.739,40.06 46.929,40.06 47.014,35.217 46.942,35.206 45.336,40.06 43.292,40.06 41.71,35.194 41.65,35.194 
		41.783,40.06 	"/>
	<path fill="#4C2896" d="M51.078,40.06l3.396-8.613h3.077l3.357,8.613h-3.151l-0.449-1.265h-2.738l-0.424,1.265H51.078z
		 M55.263,36.581h1.4l-0.693-2.129L55.263,36.581z"/>
	<polygon fill="#4C2896" points="66.019,40.06 66.019,31.447 74.169,31.447 74.169,40.06 71.272,40.06 71.272,33.868 68.914,33.868 
		68.914,40.06 	"/>
	<path fill="#4C2896" d="M75.507,40.06l3.395-8.613h3.08l3.355,8.613h-3.15l-0.449-1.265H79l-0.426,1.265H75.507z M79.692,36.581
		h1.398l-0.693-2.129L79.692,36.581z"/>
	<path fill="#4C2896" d="M86.676,40.06v-8.613h3.698c0.471,0,0.904,0.048,1.302,0.146c0.397,0.097,0.769,0.251,1.113,0.462
		c0.347,0.21,0.616,0.51,0.815,0.9c0.197,0.389,0.297,0.852,0.297,1.387c0,0.51-0.1,0.96-0.297,1.35
		c-0.199,0.391-0.467,0.698-0.803,0.926c-0.338,0.227-0.711,0.395-1.121,0.504c-0.408,0.109-0.846,0.164-1.308,0.164h-0.815v2.774
		H86.676z M89.56,35.084h0.607c0.243,0,0.451-0.062,0.62-0.184c0.171-0.121,0.256-0.299,0.256-0.535
		c0-0.445-0.292-0.669-0.876-0.669H89.56V35.084z"/>
	<polygon fill="#4C2896" points="95.728,40.06 95.728,31.447 98.55,31.447 98.55,34.622 98.562,34.622 100.86,31.447 
		104.269,31.447 101.03,35.388 104.426,40.06 100.873,40.06 98.573,36.629 98.55,36.629 98.55,40.06 	"/>
	<path fill="#4C2896" d="M3.975,50.42v-0.969c-1.094-0.017-1.963-0.279-2.61-0.793c-0.781-0.609-1.171-1.453-1.171-2.531
		c0-1.189,0.409-2.07,1.227-2.644c0.609-0.416,1.46-0.644,2.554-0.68v-0.724h2.643v0.724c1.093,0.038,1.944,0.264,2.554,0.68
		c0.818,0.573,1.226,1.454,1.226,2.644c0,1.078-0.39,1.922-1.17,2.531c-0.647,0.514-1.517,0.777-2.61,0.793v0.969H3.975z
		 M4.031,47.221v-2.197c-0.789,0.104-1.183,0.473-1.183,1.104C2.848,46.752,3.242,47.118,4.031,47.221 M6.562,47.221
		c0.788-0.104,1.183-0.469,1.183-1.092c0-0.633-0.395-1-1.183-1.104V47.221z"/>
	<path fill="#4C2896" d="M18.807,49.25c-0.833,0.78-1.881,1.17-3.145,1.17c-1.265,0-2.311-0.39-3.14-1.17
		c-0.828-0.78-1.244-1.795-1.244-3.045c0-1.242,0.413-2.24,1.238-2.994c0.825-0.754,1.874-1.131,3.146-1.131
		c1.271,0,2.32,0.377,3.15,1.131c0.828,0.754,1.243,1.752,1.243,2.994C20.056,47.456,19.64,48.47,18.807,49.25 M15.663,47.969
		c0.445,0,0.818-0.166,1.115-0.497c0.297-0.331,0.446-0.752,0.446-1.267c0-0.504-0.148-0.914-0.441-1.227
		c-0.294-0.313-0.667-0.468-1.121-0.468s-0.827,0.155-1.122,0.468c-0.294,0.313-0.44,0.721-0.44,1.227
		c0,0.515,0.146,0.936,0.44,1.267C14.835,47.803,15.208,47.969,15.663,47.969"/>
	<path fill="#4C2896" d="M21.338,50.2v-7.896h3.391c0.431,0,0.829,0.045,1.193,0.134c0.364,0.089,0.704,0.229,1.02,0.423
		s0.565,0.469,0.747,0.826c0.183,0.355,0.274,0.779,0.274,1.271c0,0.469-0.091,0.881-0.274,1.237
		c-0.182,0.357-0.427,0.64-0.736,0.849c-0.308,0.207-0.651,0.361-1.026,0.463c-0.376,0.1-0.775,0.149-1.199,0.149h-0.747V50.2
		H21.338z M23.982,45.638h0.557c0.222,0,0.413-0.058,0.569-0.168c0.156-0.11,0.234-0.274,0.234-0.49
		c0-0.409-0.268-0.614-0.803-0.614h-0.557V45.638z"/>
	<polygon fill="#4C2896" points="29.134,50.2 29.134,42.303 32.602,42.303 34.029,46.552 34.085,46.552 35.323,42.303 
		38.903,42.303 38.903,50.2 36.327,50.2 36.405,45.76 36.338,45.749 34.866,50.2 32.993,50.2 31.542,45.738 31.488,45.738 
		31.61,50.2 	"/>
	<path fill="#4C2896" d="M41.881,50.366c-0.513,0-1-0.06-1.461-0.178l0.323-2.13c0.275,0.096,0.547,0.146,0.815,0.146
		c0.468,0,0.799-0.188,0.993-0.568l0.022-0.045l-2.989-5.286h3.078l1.349,2.944l1.216-2.944h3l-3.021,5.922
		c-0.38,0.735-0.835,1.276-1.367,1.623C43.307,50.193,42.654,50.366,41.881,50.366"/>
	<path fill="#4C2896" d="M48.874,50.277c-0.529,0-0.971-0.045-1.327-0.134l0.167-2.152c0.134,0.045,0.29,0.066,0.469,0.066
		c0.148,0,0.274-0.021,0.378-0.066s0.212-0.138,0.324-0.279c0.11-0.142,0.195-0.371,0.25-0.691c0.056-0.318,0.083-0.725,0.083-1.215
		v-3.502h6.805V50.2h-2.655v-5.677h-1.606v0.892c0,0.951-0.06,1.746-0.179,2.381c-0.118,0.637-0.304,1.134-0.557,1.494
		c-0.253,0.361-0.55,0.615-0.892,0.765C49.792,50.202,49.372,50.277,48.874,50.277"/>
	<path fill="#4C2896" d="M56.746,50.2l3.112-7.896h2.82l3.078,7.896h-2.89l-0.411-1.16h-2.51l-0.391,1.16H56.746z M60.583,47.008
		h1.283l-0.637-1.951L60.583,47.008z"/>
	<polygon fill="#4C2896" points="69.438,50.2 69.438,42.303 72.022,42.303 72.022,45.213 72.035,45.213 74.146,42.303 
		77.267,42.303 74.3,45.917 77.411,50.2 74.155,50.2 72.047,47.054 72.022,47.054 72.022,50.2 	"/>
	<polygon fill="#4C2896" points="78.112,50.2 78.112,42.303 80.634,42.303 80.634,46.529 80.679,46.529 82.999,42.303 
		85.753,42.303 85.753,50.2 83.231,50.2 83.231,46.206 83.188,46.206 80.937,50.2 	"/>
	<polygon fill="#4C2896" points="87.392,50.2 87.392,42.303 90.047,42.303 90.047,44.979 92.211,44.979 92.211,42.303 
		94.864,42.303 94.864,50.2 92.211,50.2 92.211,47.2 90.047,47.2 90.047,50.2 	"/>
	<path fill="#4C2896" d="M103.674,49.25c-0.832,0.78-1.881,1.17-3.146,1.17c-1.262,0-2.311-0.39-3.139-1.17
		c-0.83-0.78-1.242-1.795-1.242-3.045c0-1.242,0.41-2.24,1.236-2.994c0.825-0.754,1.874-1.131,3.145-1.131
		c1.271,0,2.322,0.377,3.15,1.131c0.829,0.754,1.244,1.752,1.244,2.994C104.924,47.456,104.507,48.47,103.674,49.25 M100.528,47.969
		c0.447,0,0.818-0.166,1.117-0.497c0.297-0.331,0.443-0.752,0.443-1.267c0-0.504-0.146-0.914-0.438-1.227
		c-0.295-0.313-0.668-0.468-1.123-0.468c-0.452,0-0.826,0.155-1.12,0.468s-0.44,0.721-0.44,1.227c0,0.515,0.146,0.936,0.44,1.267
		S100.076,47.969,100.528,47.969"/>
</g>
</svg>
